<svg width="1125" height="1125" viewBox="0 0 1125 1125" fill="none" xmlns="http://www.w3.org/2000/svg">
<path fill-rule="evenodd" clip-rule="evenodd" d="M832.638 698.705L728.235 957.307L469.828 852.825L542.401 673.065C559.981 629.522 609.504 608.485 653.014 626.077L832.638 698.705ZM403.492 524.015C474.849 552.867 509.324 634.146 480.493 705.557C451.663 776.968 370.445 811.469 299.088 782.617C227.731 753.765 193.256 672.486 222.086 601.075C250.917 529.664 332.134 495.163 403.492 524.015ZM955.845 394.283L851.441 652.885L671.817 580.258C628.307 562.665 607.285 513.105 624.865 469.561L697.438 289.801L955.845 394.283ZM655.052 271.834L582.479 451.594C564.899 495.138 515.376 516.175 471.866 498.582L292.241 425.954L396.645 167.352L655.052 271.834Z" fill="url(#paint0_linear_3_15)"/>
<defs>
<linearGradient id="paint0_linear_3_15" x1="400.533" y1="168.924" x2="730.518" y2="953.355" gradientUnits="userSpaceOnUse">
<stop stop-color="#FF8F71"/>
<stop offset="1" stop-color="#FF3E55"/>
</linearGradient>
</defs>
</svg>
