<svg width="380" height="359" viewBox="0 0 380 359" fill="none" xmlns="http://www.w3.org/2000/svg">
<g clip-path="url(#clip0_12_74)">
<path opacity="0.08" d="M302 181.5C302 243.08 252.08 293 190.5 293C128.92 293 79 243.08 79 181.5C79 119.92 128.92 70 190.5 70C252.08 70 302 119.92 302 181.5Z" fill="#2D2E40"/>
<path opacity="0.5" d="M315.5 180C315.5 249.312 259.312 305.5 190 305.5C120.688 305.5 64.5 249.312 64.5 180C64.5 110.688 120.688 54.5 190 54.5C259.312 54.5 315.5 110.688 315.5 180Z" stroke="#2D2E40"/>
<path opacity="0.25" d="M352.5 180C352.5 269.746 279.746 342.5 190 342.5C100.254 342.5 27.5 269.746 27.5 180C27.5 90.2537 100.254 17.5 190 17.5C279.746 17.5 352.5 90.2537 352.5 180Z" stroke="#2D2E40"/>
<g filter="url(#filter0_d_12_74)">
<path d="M305 92H77C70.3726 92 65 97.3726 65 104V253C65 259.627 70.3726 265 77 265H305C311.627 265 317 259.627 317 253V104C317 97.3726 311.627 92 305 92Z" fill="#535353"/>
<path d="M306 94H76C70.4772 94 66 98.4772 66 104V254C66 259.523 70.4772 264 76 264H306C311.523 264 316 259.523 316 254V104C316 98.4772 311.523 94 306 94Z" fill="#1D1D25"/>
<mask id="mask0_12_74" style="mask-type:alpha" maskUnits="userSpaceOnUse" x="73" y="100" width="237" height="158">
<path d="M307 100H76C74.3431 100 73 101.343 73 103V254.94C73 256.597 74.3431 257.94 76 257.94H307C308.657 257.94 310 256.597 310 254.94V103C310 101.343 308.657 100 307 100Z" fill="white"/>
</mask>
<g mask="url(#mask0_12_74)">
<path d="M307 100H76C74.3431 100 73 101.343 73 103V254.94C73 256.597 74.3431 257.94 76 257.94H307C308.657 257.94 310 256.597 310 254.94V103C310 101.343 308.657 100 307 100Z" fill="url(#paint0_linear_12_74)"/>
<path d="M306.848 128.352H75.848C74.1912 128.352 72.848 129.695 72.848 131.352V255.061C72.848 256.718 74.1912 258.061 75.848 258.061H306.848C308.505 258.061 309.848 256.718 309.848 255.061V131.352C309.848 129.695 308.505 128.352 306.848 128.352Z" fill="#F9F6F6"/>
<path d="M153.429 117.615H109.478C107.821 117.615 106.478 118.958 106.478 120.615V235.25C106.478 236.907 107.821 238.25 109.478 238.25H153.429C155.086 238.25 156.429 236.907 156.429 235.25V120.615C156.429 118.958 155.086 117.615 153.429 117.615Z" fill="white"/>
<path d="M273.523 117.615H167.931C166.274 117.615 164.931 118.958 164.931 120.615V235.25C164.931 236.907 166.274 238.25 167.931 238.25H273.523C275.18 238.25 276.523 236.907 276.523 235.25V120.615C276.523 118.958 275.18 117.615 273.523 117.615Z" fill="white"/>
<path d="M268.74 124.02H172.713C171.056 124.02 169.713 125.363 169.713 127.02V149.311C169.713 150.968 171.056 152.311 172.713 152.311H268.74C270.397 152.311 271.74 150.968 271.74 149.311V127.02C271.74 125.363 270.397 124.02 268.74 124.02Z" fill="#E7E7E7"/>
<path d="M197.002 158.183H172.713C171.056 158.183 169.713 159.526 169.713 161.183V183.474C169.713 185.131 171.056 186.474 172.713 186.474H197.002C198.659 186.474 200.002 185.131 200.002 183.474V161.183C200.002 159.526 198.659 158.183 197.002 158.183Z" fill="#E7E7E7"/>
<path d="M268.74 158.183H210.442C208.785 158.183 207.442 159.526 207.442 161.183V183.474C207.442 185.131 208.785 186.474 210.442 186.474H268.74C270.397 186.474 271.74 185.131 271.74 183.474V161.183C271.74 159.526 270.397 158.183 268.74 158.183Z" fill="#E7E7E7"/>
</g>
<g opacity="0.098">
<path opacity="0.098" d="M195.62 85H190.5C190.224 85 190 85.2239 190 85.5C190 85.7761 190.224 86 190.5 86H195.62C195.896 86 196.12 85.7761 196.12 85.5C196.12 85.2239 195.896 85 195.62 85Z" fill="#4A5166"/>
<path opacity="0.098" d="M198.5 85H198.06C197.784 85 197.56 85.2239 197.56 85.5C197.56 85.7761 197.784 86 198.06 86H198.5C198.776 86 199 85.7761 199 85.5C199 85.2239 198.776 85 198.5 85Z" fill="#4A5166"/>
</g>
<mask id="mask1_12_74" style="mask-type:alpha" maskUnits="userSpaceOnUse" x="26" y="263" width="328" height="8">
<path d="M29 263H350.953C351.749 263 352.512 263.316 353.074 263.879C353.637 264.441 353.953 265.204 353.953 266V270.602H26V266C26 265.204 26.3161 264.441 26.8787 263.879C27.4413 263.316 28.2044 263 29 263V263Z" fill="white"/>
</mask>
<g mask="url(#mask1_12_74)">
<path d="M29 263H350.953C351.749 263 352.512 263.316 353.074 263.879C353.637 264.441 353.953 265.204 353.953 266V270.602H26V266C26 265.204 26.3161 264.441 26.8787 263.879C27.4413 263.316 28.2044 263 29 263V263Z" fill="#52526F"/>
<path d="M206.76 244.374H173.193C167.67 244.374 163.193 248.851 163.193 254.374V257.561C163.193 263.084 167.67 267.561 173.193 267.561H206.76C212.283 267.561 216.76 263.084 216.76 257.561V254.374C216.76 248.851 212.283 244.374 206.76 244.374Z" fill="#2F2F47"/>
</g>
<path d="M26 271H354C354 271.796 353.684 272.559 353.121 273.121C352.559 273.684 351.796 274 351 274H29C28.2044 274 27.4413 273.684 26.8787 273.121C26.3161 272.559 26 271.796 26 271V271Z" fill="#393A56"/>
</g>
</g>
<defs>
<filter id="filter0_d_12_74" x="-14" y="65" width="408" height="269" filterUnits="userSpaceOnUse" color-interpolation-filters="sRGB">
<feFlood flood-opacity="0" result="BackgroundImageFix"/>
<feColorMatrix in="SourceAlpha" type="matrix" values="0 0 0 0 0 0 0 0 0 0 0 0 0 0 0 0 0 0 127 0" result="hardAlpha"/>
<feOffset dy="20"/>
<feGaussianBlur stdDeviation="20"/>
<feColorMatrix type="matrix" values="0 0 0 0 0.421822 0 0 0 0 0.554338 0 0 0 0 0.89371 0 0 0 0.243444 0"/>
<feBlend mode="normal" in2="BackgroundImageFix" result="effect1_dropShadow_12_74"/>
<feBlend mode="normal" in="SourceGraphic" in2="effect1_dropShadow_12_74" result="shape"/>
</filter>
<linearGradient id="paint0_linear_12_74" x1="73" y1="143.899" x2="269.485" y2="274.837" gradientUnits="userSpaceOnUse">
<stop stop-color="#FF8F71"/>
<stop offset="1" stop-color="#FF3E55"/>
</linearGradient>
<clipPath id="clip0_12_74">
<rect width="380" height="359" fill="white"/>
</clipPath>
</defs>
</svg>
